<svg xmlns="http://www.w3.org/2000/svg" viewBox="0 0 428 110.0498"><defs><style>.ad503f0a-59c3-4f60-9257-f03d6383737f,.f2472fc2-33b6-43bd-b55b-07668d5aa59c{fill:#1fc48f;}.ad503f0a-59c3-4f60-9257-f03d6383737f{stroke:#1fc48f;stroke-miterlimit:10;stroke-width:2px;}.b36b1423-36ec-4dcc-8bc8-d754b4da7ac4{fill:#304a5d;}.a9a1ea4d-eeb5-4fb2-b120-100b798393bb{fill:#d6d7d8;}</style></defs><g id="baa5f9d7-0fba-4a55-870e-3261075ee63d" data-name="Layer 2"><g id="f6775703-b96c-4704-92b9-d49240f12971" data-name="Layer 1"><path class="ad503f0a-59c3-4f60-9257-f03d6383737f" d="M33.10168,9.25647H393.13794a25.06042,25.06042,0,0,1,25.06042,25.06042V75.73328a25.06042,25.06042,0,0,1-25.06042,25.06042H33.10175A25.06042,25.06042,0,0,1,8.04132,75.73328V34.31683A25.06036,25.06036,0,0,1,33.10168,9.25647Z"/><path class="f2472fc2-33b6-43bd-b55b-07668d5aa59c" d="M400.17188,0H27.82764C12.4834,0,0,13.92578,0,31.043V79.00732C0,96.124,12.4834,110.0498,27.82764,110.0498H400.17188C415.5166,110.0498,428,96.124,428,79.00732V31.043C428,13.92578,415.5166,0,400.17188,0Zm.001,107.03076H27.82764c-13.73975,0-24.91748-12.5708-24.91748-28.02295V31.04248c0-15.45215,11.17773-28.02295,24.91748-28.02295H400.17285c13.73926,0,24.917,12.5708,24.917,28.023V79.00781C425.08984,94.46,413.91211,107.03076,400.17285,107.03076Z"/><path class="b36b1423-36ec-4dcc-8bc8-d754b4da7ac4" d="M28.18026,33.339H43.13877l11.7576,17.05578.11-.055V33.339H69.79987V73.30229H54.8405L43.08376,56.24565l-.11088.05587V73.30229H28.18026Z"/><path class="b36b1423-36ec-4dcc-8bc8-d754b4da7ac4" d="M74.60726,55.142V33.339H91.05707V54.03836c0,3.75359,1.21366,6.40268,5.02313,6.40268,3.64271,0,4.91225-2.31817,4.91225-6.34767V33.339h14.79348V54.9211c0,6.12678-1.5463,9.99125-3.64357,12.53032-3.64272,4.41544-10.26717,6.4577-17.05578,6.4577-7.01038,0-13.193-2.20729-16.72572-6.34768C76.37361,65.24327,74.60726,61.65557,74.60726,55.142Z"/><path class="b36b1423-36ec-4dcc-8bc8-d754b4da7ac4" d="M131.13553,52.05111,120.04064,33.339H138.0909l3.7536,8.114h.11l3.69858-8.114H161.992L150.73124,52.382l12.86125,20.92026h-18.4362l-4.96812-9.54945h-.11L135.165,73.30229H118.49519Z"/><path class="b36b1423-36ec-4dcc-8bc8-d754b4da7ac4" d="M175.24608,46.9171H164.09532V33.339h38.74962V46.9171H191.695V73.30229H175.24608Z"/><path class="a9a1ea4d-eeb5-4fb2-b120-100b798393bb" d="M207.26553,57.07424c5.35405,3.47682,10.764,4.74636,13.13716,4.74636,1.65632,0,2.04226-.66184,2.04226-1.32455,0-.77272-.49682-1.10364-1.21453-1.26953-1.93138-.49681-7.50633-1.10365-11.59171-4.69135a10.53788,10.53788,0,0,1-3.53269-8.33493c0-8.004,6.18264-13.46893,16.28391-13.46893a34.18131,34.18131,0,0,1,14.2408,3.14676V48.96022a31.56586,31.56586,0,0,0-12.08766-3.5327c-1.60131,0-2.04311.60683-2.04311,1.21367,0,.82859.60769,1.15951,1.26953,1.38041,1.65633.49681,7.17627,1.15866,11.0949,4.25041a10.49507,10.49507,0,0,1,4.0295,8.61084c0,7.67222-6.18178,13.02627-16.66985,13.02627-5.02313,0-11.039-1.21367-14.95851-3.25592Z"/><path class="a9a1ea4d-eeb5-4fb2-b120-100b798393bb" d="M251.15346,46.9171H240.0027V33.339h38.74962V46.9171H267.60241V73.30229h-16.449Z"/><path class="a9a1ea4d-eeb5-4fb2-b120-100b798393bb" d="M289.02378,33.339H304.755l15.23443,39.96329h-17.7735l-1.38041-5.244h-9.16266l-1.54545,5.244H273.78849Zm9.16265,24.673-1.76634-8.114h-.11l-1.76635,8.114Z"/><path class="a9a1ea4d-eeb5-4fb2-b120-100b798393bb" d="M322.75628,33.339h16.11717c8.28077,0,19.43068,2.15228,19.43068,12.52946a11.30173,11.30173,0,0,1-4.63634,9.66033c.49681,2.15228,2.15228,3.80861,5.51822,3.80861a14.35375,14.35375,0,0,0,8.33579-2.87085V71.03913a20.41,20.41,0,0,1-10.59808,2.87c-9.43943,0-16.008-5.90587-17.60847-13.854h-.11V73.30229H322.75628ZM340.4189,51.00247c2.59408,0,3.75445-1.38041,3.75445-3.09175,0-1.71048-1.21538-3.03588-3.75445-3.03588h-1.21367v6.12763Z"/><path class="a9a1ea4d-eeb5-4fb2-b120-100b798393bb" d="M372.93688,46.9171H361.787V33.339h38.74962V46.9171H389.385V73.30229H372.93688Z"/></g></g></svg>